HIERARCHY
ROOT Hips
{
  OFFSET -22.0418 94.6069 -23.8844
  CHANNELS 6 Xposition Yposition Zposition Zrotation Xrotation Yrotation
  JOINT LeftUpLeg
  {
    OFFSET 8.91 -6.27 -2.145
    CHANNELS 3 Zrotation Xrotation Yrotation
    JOINT LeftUpLegRoll
    {
      OFFSET 0 -22.7323 0
      CHANNELS 3 Zrotation Xrotation Yrotation
      JOINT LeftLeg
      {
        OFFSET 0 -22.1464 0
        CHANNELS 3 Zrotation Xrotation Yrotation
        JOINT LeftLegRoll
        {
          OFFSET 0 -22.0919 0
          CHANNELS 3 Zrotation Xrotation Yrotation
          JOINT LeftFoot
          {
            OFFSET 0 -18.609 0
            CHANNELS 3 Zrotation Xrotation Yrotation
            JOINT LeftToeBase
            {
              OFFSET 0 -6.26232 12.9547
              CHANNELS 3 Zrotation Xrotation Yrotation
              End Site
              {
                OFFSET 0 0 5.96686
              }
            }
          }
        }
      }
    }
  }
  JOINT RightUpLeg
  {
    OFFSET -8.91 -6.27 -2.145
    CHANNELS 3 Zrotation Xrotation Yrotation
    JOINT RightUpLegRoll
    {
      OFFSET 0 -22.7323 0
      CHANNELS 3 Zrotation Xrotation Yrotation
      JOINT RightLeg
      {
        OFFSET 0 -22.1464 0
        CHANNELS 3 Zrotation Xrotation Yrotation
        JOINT RightLegRoll
        {
          OFFSET 0 -22.0919 0
          CHANNELS 3 Zrotation Xrotation Yrotation
          JOINT RightFoot
          {
            OFFSET 0 -18.609 0
            CHANNELS 3 Zrotation Xrotation Yrotation
            JOINT RightToeBase
            {
              OFFSET 0 -6.26232 12.9547
              CHANNELS 3 Zrotation Xrotation Yrotation
              End Site
              {
                OFFSET 0 0.000942417 5.96686
              }
            }
          }
        }
      }
    }
  }
  JOINT Spine
  {
    OFFSET 0 7.43174 -2.06162
    CHANNELS 3 Zrotation Xrotation Yrotation
    JOINT Spine1
    {
      OFFSET -1.68772e-005 12.1899 -1.41951
      CHANNELS 3 Zrotation Xrotation Yrotation
      JOINT Spine2
      {
        OFFSET 0 11.8846 -1.0903
        CHANNELS 3 Zrotation Xrotation Yrotation
        JOINT Spine3
        {
          OFFSET 1.84329e-005 10.5137 1.04001
          CHANNELS 3 Zrotation Xrotation Yrotation
          JOINT LeftShoulder
          {
            OFFSET 7 4.56855 2.0674
            CHANNELS 3 Zrotation Xrotation Yrotation
            JOINT LeftArm
            {
              OFFSET 10.7073 0 0
              CHANNELS 3 Zrotation Xrotation Yrotation
              JOINT LeftArmRoll
              {
                OFFSET 15.2612 0 0
                CHANNELS 3 Zrotation Xrotation Yrotation
                JOINT LeftForeArm
                {
                  OFFSET 12.0443 0 0
                  CHANNELS 3 Zrotation Xrotation Yrotation
                  JOINT LeftForeArmRoll
                  {
                    OFFSET 16.3277 0 0
                    CHANNELS 3 Zrotation Xrotation Yrotation
                    JOINT LeftHand
                    {
                      OFFSET 10.3694 0 0
                      CHANNELS 3 Zrotation Xrotation Yrotation
                      JOINT LeftHandThumb1
                      {
                        OFFSET 4.34876 -0.798502 4.28243
                        CHANNELS 3 Zrotation Xrotation Yrotation
                        JOINT LeftHandThumb2
                        {
                          OFFSET 2.51259 -0.536099 0.707454
                          CHANNELS 3 Zrotation Xrotation Yrotation
                          JOINT LeftHandThumb3
                          {
                            OFFSET 2.54314 0 0
                            CHANNELS 3 Zrotation Xrotation Yrotation
                            JOINT LeftHandThumb4
                            {
                              OFFSET 2.66675 0 0
                              CHANNELS 3 Zrotation Xrotation Yrotation
                              End Site
                              {
                                OFFSET 1 0 0
                              }
                            }
                          }
                        }
                      }
                      JOINT LeftHandIndex1
                      {
                        OFFSET 8.82198 0.199729 3.47167
                        CHANNELS 3 Zrotation Xrotation Yrotation
                        JOINT LeftHandIndex2
                        {
                          OFFSET 4.22532 0 -0.000262656
                          CHANNELS 3 Zrotation Xrotation Yrotation
                          JOINT LeftHandIndex3
                          {
                            OFFSET 2.65394 0 -0.00016516
                            CHANNELS 3 Zrotation Xrotation Yrotation
                            JOINT LeftHandIndex4
                            {
                              OFFSET 1.95822 0 -0.00012217
                              CHANNELS 3 Zrotation Xrotation Yrotation
                              End Site
                              {
                                OFFSET 1 0 0
                              }
                            }
                          }
                        }
                      }
                      JOINT LeftHandMiddle1
                      {
                        OFFSET 8.80988 0.50089 1.30468
                        CHANNELS 3 Zrotation Xrotation Yrotation
                        JOINT LeftHandMiddle2
                        {
                          OFFSET 4.86325 0 0
                          CHANNELS 3 Zrotation Xrotation Yrotation
                          JOINT LeftHandMiddle3
                          {
                            OFFSET 2.76524 0 0
                            CHANNELS 3 Zrotation Xrotation Yrotation
                            JOINT LeftHandMiddle4
                            {
                              OFFSET 2.00563 0 0
                              CHANNELS 3 Zrotation Xrotation Yrotation
                              End Site
                              {
                                OFFSET 1 0 0
                              }
                            }
                          }
                        }
                      }
                      JOINT LeftHandRing1
                      {
                        OFFSET 8.89376 0.37992 -0.793159
                        CHANNELS 3 Zrotation Xrotation Yrotation
                        JOINT LeftHandRing2
                        {
                          OFFSET 4.53776 0 -0.000282138
                          CHANNELS 3 Zrotation Xrotation Yrotation
                          JOINT LeftHandRing3
                          {
                            OFFSET 2.30453 0 -0.000143448
                            CHANNELS 3 Zrotation Xrotation Yrotation
                            JOINT LeftHandRing4
                            {
                              OFFSET 1.92335 0 -0.00012044
                              CHANNELS 3 Zrotation Xrotation Yrotation
                              End Site
                              {
                                OFFSET 1 0 0
                              }
                            }
                          }
                        }
                      }
                      JOINT LeftHandPinky1
                      {
                        OFFSET 8.88227 -0.313027 -2.49036
                        CHANNELS 3 Zrotation Xrotation Yrotation
                        JOINT LeftHandPinky2
                        {
                          OFFSET 3.0441 0 0
                          CHANNELS 3 Zrotation Xrotation Yrotation
                          JOINT LeftHandPinky3
                          {
                            OFFSET 1.9745 0 0
                            CHANNELS 3 Zrotation Xrotation Yrotation
                            JOINT LeftHandPinky4
                            {
                              OFFSET 1.66661 0 0
                              CHANNELS 3 Zrotation Xrotation Yrotation
                              End Site
                              {
                                OFFSET 1 0 0
                              }
                            }
                          }
                        }
                      }
                    }
                  }
                }
              }
            }
          }
          JOINT RightShoulder
          {
            OFFSET -7 4.56855 2.0673
            CHANNELS 3 Zrotation Xrotation Yrotation
            JOINT RightArm
            {
              OFFSET -10.7073 0 0
              CHANNELS 3 Zrotation Xrotation Yrotation
              JOINT RightArmRoll
              {
                OFFSET -15.2612 0 0
                CHANNELS 3 Zrotation Xrotation Yrotation
                JOINT RightForeArm
                {
                  OFFSET -12.0444 0 0
                  CHANNELS 3 Zrotation Xrotation Yrotation
                  JOINT RightForeArmRoll
                  {
                    OFFSET -16.3276 0 0
                    CHANNELS 3 Zrotation Xrotation Yrotation
                    JOINT RightHand
                    {
                      OFFSET -10.3694 0 0
                      CHANNELS 3 Zrotation Xrotation Yrotation
                      JOINT RightHandThumb1
                      {
                        OFFSET -4.34838 -0.798501 4.28282
                        CHANNELS 3 Zrotation Xrotation Yrotation
                        JOINT RightHandThumb2
                        {
                          OFFSET -2.51253 -0.536099 0.707679
                          CHANNELS 3 Zrotation Xrotation Yrotation
                          JOINT RightHandThumb3
                          {
                            OFFSET -2.54159 0 0.0888232
                            CHANNELS 3 Zrotation Xrotation Yrotation
                            JOINT RightHandThumb4
                            {
                              OFFSET -2.66512 0 0.0931403
                              CHANNELS 3 Zrotation Xrotation Yrotation
                              End Site
                              {
                                OFFSET 1 0 0
                              }
                            }
                          }
                        }
                      }
                      JOINT RightHandIndex1
                      {
                        OFFSET -8.82167 0.199732 3.47246
                        CHANNELS 3 Zrotation Xrotation Yrotation
                        JOINT RightHandIndex2
                        {
                          OFFSET -4.22532 0 0.0001146
                          CHANNELS 3 Zrotation Xrotation Yrotation
                          JOINT RightHandIndex3
                          {
                            OFFSET -2.65394 0 7.19601e-005
                            CHANNELS 3 Zrotation Xrotation Yrotation
                            JOINT RightHandIndex4
                            {
                              OFFSET -1.95822 0 5.30956e-005
                              CHANNELS 3 Zrotation Xrotation Yrotation
                              End Site
                              {
                                OFFSET 1 0 0
                              }
                            }
                          }
                        }
                      }
                      JOINT RightHandMiddle1
                      {
                        OFFSET -8.80976 0.500893 1.30547
                        CHANNELS 3 Zrotation Xrotation Yrotation
                        JOINT RightHandMiddle2
                        {
                          OFFSET -4.86325 0 0.000131881
                          CHANNELS 3 Zrotation Xrotation Yrotation
                          JOINT RightHandMiddle3
                          {
                            OFFSET -2.76524 0 7.49854e-005
                            CHANNELS 3 Zrotation Xrotation Yrotation
                            JOINT RightHandMiddle4
                            {
                              OFFSET -2.00563 0 5.43888e-005
                              CHANNELS 3 Zrotation Xrotation Yrotation
                              End Site
                              {
                                OFFSET 1 0 0
                              }
                            }
                          }
                        }
                      }
                      JOINT RightHandRing1
                      {
                        OFFSET -8.89383 0.379922 -0.792364
                        CHANNELS 3 Zrotation Xrotation Yrotation
                        JOINT RightHandRing2
                        {
                          OFFSET -4.53776 0 0.000123049
                          CHANNELS 3 Zrotation Xrotation Yrotation
                          JOINT RightHandRing3
                          {
                            OFFSET -2.30453 0 6.24859e-005
                            CHANNELS 3 Zrotation Xrotation Yrotation
                            JOINT RightHandRing4
                            {
                              OFFSET -1.92335 0 5.21537e-005
                              CHANNELS 3 Zrotation Xrotation Yrotation
                              End Site
                              {
                                OFFSET 1 0 0
                              }
                            }
                          }
                        }
                      }
                      JOINT RightHandPinky1
                      {
                        OFFSET -8.8825 -0.313025 -2.48956
                        CHANNELS 3 Zrotation Xrotation Yrotation
                        JOINT RightHandPinky2
                        {
                          OFFSET -3.0478 0 8.26466e-005
                          CHANNELS 3 Zrotation Xrotation Yrotation
                          JOINT RightHandPinky3
                          {
                            OFFSET -1.9769 0 5.36145e-005
                            CHANNELS 3 Zrotation Xrotation Yrotation
                            JOINT RightHandPinky4
                            {
                              OFFSET -1.66864 0 4.5245e-005
                              CHANNELS 3 Zrotation Xrotation Yrotation
                              End Site
                              {
                                OFFSET 1 0 0
                              }
                            }
                          }
                        }
                      }
                    }
                  }
                }
              }
            }
          }
          JOINT Neck
          {
            OFFSET 0 11.5156 1.94702
            CHANNELS 3 Zrotation Xrotation Yrotation
            JOINT Head
            {
              OFFSET -1.26215e-005 11.0733 1.65432
              CHANNELS 3 Zrotation Xrotation Yrotation
              End Site
              {
                OFFSET 0 17.7047 0
              }
            }
          }
        }
      }
    }
  }
}
MOTION
Frames:	4
Frame Time:	0.0333333
-22.2789 83.9082 18.4965 -1.43855 3.1967 59.8649 31.3234 -10.5304 11.8845 1.57759e-019 3.32699e-017 -0.543366 -2.36797e-006 40.3644 -72.4046 7.81058e-019 7.40248e-017 -1.20905 14.9855 -28.553 3.83366 0.342941 -8.18944 0.0488514 -30.7016 -37.1086 -25.3692 2.63747e-018 1.3601e-016 -2.22185 -3.69662e-006 66.43 -4.35824 3.75883e-018 1.62356e-016 -2.65252 15.313 -20.2649 2.74775 0.409827 0.00108501 -7.76102e-006 -1.3712 3.60434 4.37013 -3.35386 -0.172458 3.69732 -3.49407 -0.0826482 3.56482 -3.62067 0.0268052 3.43392 0.000735045 0 -20.5088 -49.2393 12.6633 23.8995 0 17.6875 0 11.1343 13.2844 -40.5805 0 -13.0568 0 -11.935 2.24713 -21.2529 -11.1549 5.76273 12.9076 -33.033 -1.09055 1.67661 -36.761 0 0 0 0 0 -32.6017 -1.0779 0.768625 -123.167 0 0 -59.2777 0 0 0 0 0 -36.8107 -1.19866 5.70018 -121.96 0 0 -51.6564 0 0 0 0 0 -35.6523 -1.16604 0.154416 -113.12 0 0 -46.6402 0 0 0 0 0 -5.94989 -0.207401 3.42274 -105.959 0 0 -41.8592 0 0 0 0 0 0.00231836 1.65898e-015 12.3219 -2.07847 -27.4888 -16.2351 -5.94477e-016 -4.84287 -2.51388e-017 -19.2479 18.465 47.7898 -7.16612e-006 6.27314 -2.7251e-006 2.10004 -0.199084 -10.8298 13.5793 2.36743 6.57802 12.2192 -0.423468 -1.95467 -4.65534 0 0 0 0 0 6.25427 -0.217969 0.993605 24.2901 0 0 -0.575254 0 0 0 0 0 2.0468 -0.0714606 1.31373 20.7146 0 0 44.615 0 0 0 0 0 2.1949 -0.0766289 -2.86196 21.829 0 0 14.7472 0 0 0 0 0 5.80099 -0.202228 -7.78061 15.3824 0 0 6.55881 0 0 0 0 0 20.4244 3.33063 -33.81 -10.7154 1.11604 -40.6798 
-22.2257 83.9003 18.5378 -1.4006 3.13184 59.7317 31.3775 -10.3386 11.9268 1.57924e-019 3.32873e-017 -0.543649 4.12667e-006 40.36 -72.4454 7.55645e-019 7.28107e-017 -1.18921 15.0637 -28.5562 3.85433 0.411627 -8.24013 0.0589962 -30.5927 -37.0707 -25.2706 2.6391e-018 1.36052e-016 -2.22253 -2.91017e-006 66.4572 -4.26617 3.78254e-018 1.62867e-016 -2.66087 15.2842 -20.3265 2.75103 0.369464 0.0010977 -7.07847e-006 -1.40509 3.6291 4.40849 -3.37956 -0.199907 3.72994 -3.52314 -0.109004 3.59497 -3.65284 0.0021618 3.46166 0.000734999 0 -20.6359 -49.0363 12.788 24.1152 0 17.9494 0 11.2468 13.4142 -40.6023 0 -13.2526 0 -12.1853 2.26583 -20.9924 -11.1549 5.76273 12.9076 -33.033 -1.09055 1.67661 -36.761 0 0 0 0 0 -32.6017 -1.0779 0.768625 -123.167 0 0 -59.2777 0 0 0 0 0 -36.8107 -1.19866 5.70018 -121.96 0 0 -51.6564 0 0 0 0 0 -35.6523 -1.16604 0.154416 -113.12 0 0 -46.6402 0 0 0 0 0 -5.94989 -0.207401 3.42274 -105.959 0 0 -41.8592 0 0 0 0 0 0.00231836 1.69394e-015 12.5615 -1.89009 -27.5152 -16.4942 -6.21053e-016 -5.05826 -2.74321e-017 -19.2805 18.4329 47.8896 -7.15799e-006 6.4429 -2.726e-006 2.13412 -0.205158 -10.981 13.5794 2.36731 6.57873 12.2187 -0.42345 -1.95468 -4.65574 0 0 0 0 0 6.25427 -0.217969 0.993679 24.2901 0 0 -0.575254 0 0 0 0 0 2.0468 -0.0714606 1.31394 20.7146 0 0 44.6147 0 0 0 0 0 2.1949 -0.0766289 -2.86215 21.829 0 0 14.7472 0 0 0 0 0 5.80174 -0.202254 -7.78083 15.3824 0 0 6.55881 0 0 0 0 0 20.7406 3.63366 -33.8726 -10.7802 0.905979 -40.6795 
-22.1852 83.8979 18.5591 -1.47139 3.14095 59.7509 31.4109 -10.4001 11.9465 1.57894e-019 3.32841e-017 -0.543597 -2.56232e-006 40.3948 -72.4796 7.49545e-019 7.25163e-017 -1.1844 15.1212 -28.5165 3.86362 0.40037 -8.33424 0.0580336 -30.5763 -37.0939 -25.2782 2.6611e-018 1.36618e-016 -2.23178 -3.85291e-006 66.4579 -4.27568 3.80295e-018 1.63306e-016 -2.66804 15.3141 -20.3542 2.76033 0.412887 0.00110707 -7.97791e-006 -1.42651 3.65488 4.39892 -3.39877 -0.204951 3.72258 -3.54328 -0.114047 3.58571 -3.67382 -0.00264222 3.45051 0.00073495 0 -20.6287 -48.8749 12.8121 24.1709 0 18.0695 0 11.3942 13.5934 -40.612 0 -13.3445 0 -12.1127 2.24663 -20.9413 -11.1549 5.76273 12.9076 -33.033 -1.09055 1.67661 -36.761 0 0 0 0 0 -32.6017 -1.0779 0.768625 -123.167 0 0 -59.2777 0 0 0 0 0 -36.8107 -1.19866 5.70018 -121.96 0 0 -51.6564 0 0 0 0 0 -35.6523 -1.16604 0.154416 -113.12 0 0 -46.6402 0 0 0 0 0 -5.94989 -0.207401 3.42274 -105.959 0 0 -41.8592 0 0 0 0 0 0.00231836 1.70139e-015 12.6124 -1.73162 -27.6992 -16.5061 -6.48299e-016 -5.27895 -2.98867e-017 -19.1945 18.3402 47.8911 -7.14894e-006 6.63198 -2.72703e-006 2.30571 -0.225017 -11.1464 13.5795 2.3672 6.57936 12.2182 -0.423434 -1.95468 -4.6561 0 0 0 0 0 6.25427 -0.217969 0.993745 24.2901 0 0 -0.575254 0 0 0 0 0 2.0468 -0.0714606 1.31413 20.7146 0 0 44.6145 0 0 0 0 0 2.1949 -0.0766289 -2.86231 21.829 0 0 14.7472 0 0 0 0 0 5.80252 -0.202281 -7.78103 15.3824 0 0 6.55881 0 0 0 0 0 20.6847 3.56408 -33.8146 -10.6114 1.01257 -40.7083 
-22.1553 83.8823 18.5896 -1.6248 3.17231 59.8045 31.4891 -10.5248 12.0077 1.58651e-019 3.33638e-017 -0.544899 -7.60484e-006 40.3727 -72.5031 7.55334e-019 7.27957e-017 -1.18897 15.1185 -28.5628 3.86943 0.385296 -8.29127 0.0555626 -30.4869 -37.231 -25.1997 2.62113e-018 1.35588e-016 -2.21495 -3.37951e-006 66.4821 -4.46162 3.77763e-018 1.62762e-016 -2.65914 15.4346 -20.377 2.78553 0.429068 0.00111296 -8.33469e-006 -1.40078 3.62638 4.39125 -3.35813 -0.237811 3.71515 -3.50286 -0.148066 3.58021 -3.63391 -0.0380361 3.44685 0.0007349 0 -20.5821 -49.1851 12.6108 24.1228 0 17.6318 0 11.1737 13.4791 -40.2792 0 -13.044 0 -12.1533 2.25393 -20.9387 -11.1549 5.76273 12.9076 -33.033 -1.09055 1.67661 -36.761 0 0 0 0 0 -32.6017 -1.0779 0.768625 -123.167 0 0 -59.2777 0 0 0 0 0 -36.8107 -1.19866 5.70018 -121.96 0 0 -51.6564 0 0 0 0 0 -35.6523 -1.16604 0.154416 -113.12 0 0 -46.6402 0 0 0 0 0 -5.94989 -0.207401 3.42274 -105.959 0 0 -41.8592 0 0 0 0 0 0.00231836 1.68225e-015 12.4814 -1.90648 -27.6906 -16.4117 -6.42136e-016 -5.22904 -2.93223e-017 -19.0228 18.2471 47.7549 -7.15096e-006 6.5897 -2.7268e-006 2.73678 -0.2691 -11.2293 13.5796 2.36711 6.57991 12.2178 -0.42342 -1.95468 -4.65641 0 0 0 0 0 6.25427 -0.217969 0.993803 24.2901 0 0 -0.575254 0 0 0 0 0 2.0468 -0.0714606 1.3143 20.7146 0 0 44.6143 0 0 0 0 0 2.1949 -0.0766289 -2.86245 21.829 0 0 14.7472 0 0 0 0 0 5.80332 -0.202309 -7.7812 15.3824 0 0 6.55881 0 0 0 0 0 20.0787 3.66375 -33.6306 -9.95754 1.5061 -40.7901 
